<svg width="963" height="256" viewBox="0 0 963 256" fill="none" xmlns="http://www.w3.org/2000/svg">
<path d="M287.541 161V92.145H305.761V117.78H326.312V92.145H344.532V161H326.312V133.67H305.761V161H287.541Z" fill="#000B1B"/>
<path d="M374.366 162.271C368.575 162.271 364.373 160.329 361.76 156.445C359.147 152.49 357.841 147.229 357.841 140.661V108.035H376.061V138.331C376.061 141.721 376.485 143.98 377.332 145.11C378.25 146.24 379.592 146.805 381.358 146.805C383.052 146.805 384.465 146.452 385.595 145.746C386.725 145.04 387.855 143.839 388.985 142.144V108.035H407.205V161H392.374L391.103 154.009H390.679C388.561 156.551 386.195 158.564 383.582 160.047C381.04 161.53 377.968 162.271 374.366 162.271Z" fill="#000B1B"/>
<path d="M438.785 182.822C434.76 182.822 431.052 182.363 427.662 181.445C424.273 180.597 421.554 179.22 419.506 177.313C417.528 175.407 416.54 172.864 416.54 169.686C416.54 165.52 419.011 162.13 423.955 159.517V159.093C422.613 158.104 421.448 156.904 420.459 155.492C419.541 154.009 419.082 152.172 419.082 149.983C419.082 148.147 419.612 146.346 420.671 144.581C421.801 142.815 423.249 141.297 425.014 140.026V139.602C423.107 138.331 421.413 136.53 419.93 134.199C418.517 131.798 417.811 129.079 417.811 126.043C417.811 121.664 418.87 118.063 420.989 115.238C423.178 112.342 426.003 110.224 429.463 108.882C432.924 107.47 436.596 106.763 440.48 106.763C443.587 106.763 446.412 107.187 448.954 108.035H468.658V121.17H461.031C461.242 121.806 461.419 122.618 461.56 123.606C461.772 124.595 461.878 125.619 461.878 126.678C461.878 130.845 460.925 134.235 459.018 136.848C457.111 139.39 454.534 141.262 451.285 142.462C448.036 143.663 444.435 144.263 440.48 144.263C438.715 144.263 436.737 144.016 434.548 143.521C433.7 144.298 433.277 145.322 433.277 146.593C433.277 147.723 433.842 148.535 434.972 149.03C436.172 149.524 438.079 149.771 440.692 149.771H448.637C455.275 149.771 460.395 150.866 463.997 153.055C467.669 155.174 469.505 158.669 469.505 163.542C469.505 167.356 468.234 170.71 465.692 173.606C463.22 176.501 459.689 178.761 455.098 180.385C450.508 182.01 445.07 182.822 438.785 182.822ZM440.48 133.458C442.175 133.458 443.552 132.858 444.611 131.657C445.671 130.457 446.2 128.585 446.2 126.043C446.2 123.571 445.671 121.77 444.611 120.64C443.552 119.44 442.175 118.84 440.48 118.84C438.785 118.84 437.408 119.44 436.349 120.64C435.289 121.77 434.76 123.571 434.76 126.043C434.76 128.585 435.289 130.457 436.349 131.657C437.408 132.858 438.785 133.458 440.48 133.458ZM441.751 171.593C444.717 171.593 447.189 171.134 449.166 170.216C451.144 169.368 452.132 168.203 452.132 166.72C452.132 165.308 451.497 164.425 450.226 164.072C449.025 163.719 447.295 163.542 445.035 163.542H440.904C438.785 163.542 437.161 163.472 436.031 163.33C434.972 163.26 434.054 163.119 433.277 162.907C432.006 164.178 431.37 165.449 431.37 166.72C431.37 168.415 432.323 169.651 434.23 170.428C436.208 171.205 438.715 171.593 441.751 171.593Z" fill="#000B1B"/>
<path d="M496.613 182.822C492.587 182.822 488.88 182.363 485.49 181.445C482.1 180.597 479.381 179.22 477.333 177.313C475.356 175.407 474.367 172.864 474.367 169.686C474.367 165.52 476.839 162.13 481.782 159.517V159.093C480.44 158.104 479.275 156.904 478.287 155.492C477.368 154.009 476.909 152.172 476.909 149.983C476.909 148.147 477.439 146.346 478.498 144.581C479.628 142.815 481.076 141.297 482.842 140.026V139.602C480.935 138.331 479.24 136.53 477.757 134.199C476.344 131.798 475.638 129.079 475.638 126.043C475.638 121.664 476.698 118.063 478.816 115.238C481.005 112.342 483.83 110.224 487.291 108.882C490.751 107.47 494.423 106.763 498.307 106.763C501.415 106.763 504.24 107.187 506.782 108.035H526.485V121.17H518.858C519.07 121.806 519.246 122.618 519.388 123.606C519.599 124.595 519.705 125.619 519.705 126.678C519.705 130.845 518.752 134.235 516.845 136.848C514.939 139.39 512.361 141.262 509.112 142.462C505.864 143.663 502.262 144.263 498.307 144.263C496.542 144.263 494.565 144.016 492.375 143.521C491.528 144.298 491.104 145.322 491.104 146.593C491.104 147.723 491.669 148.535 492.799 149.03C494 149.524 495.906 149.771 498.519 149.771H506.464C513.102 149.771 518.222 150.866 521.824 153.055C525.496 155.174 527.332 158.669 527.332 163.542C527.332 167.356 526.061 170.71 523.519 173.606C521.047 176.501 517.516 178.761 512.926 180.385C508.336 182.01 502.898 182.822 496.613 182.822ZM498.307 133.458C500.002 133.458 501.379 132.858 502.439 131.657C503.498 130.457 504.028 128.585 504.028 126.043C504.028 123.571 503.498 121.77 502.439 120.64C501.379 119.44 500.002 118.84 498.307 118.84C496.613 118.84 495.235 119.44 494.176 120.64C493.117 121.77 492.587 123.571 492.587 126.043C492.587 128.585 493.117 130.457 494.176 131.657C495.235 132.858 496.613 133.458 498.307 133.458ZM499.579 171.593C502.545 171.593 505.016 171.134 506.994 170.216C508.971 169.368 509.96 168.203 509.96 166.72C509.96 165.308 509.324 164.425 508.053 164.072C506.853 163.719 505.122 163.542 502.862 163.542H498.731C496.613 163.542 494.988 163.472 493.858 163.33C492.799 163.26 491.881 163.119 491.104 162.907C489.833 164.178 489.197 165.449 489.197 166.72C489.197 168.415 490.151 169.651 492.058 170.428C494.035 171.205 496.542 171.593 499.579 171.593Z" fill="#000B1B"/>
<path d="M535.161 161V108.035H553.381V161H535.161ZM544.271 101.467C541.305 101.467 538.903 100.655 537.067 99.0305C535.231 97.3356 534.313 95.1111 534.313 92.3569C534.313 89.6027 535.231 87.4134 537.067 85.7892C538.903 84.0943 541.305 83.2468 544.271 83.2468C547.237 83.2468 549.638 84.0943 551.474 85.7892C553.31 87.4134 554.228 89.6027 554.228 92.3569C554.228 95.1111 553.31 97.3356 551.474 99.0305C549.638 100.655 547.237 101.467 544.271 101.467Z" fill="#000B1B"/>
<path d="M565.678 161V108.035H580.508L581.779 114.39H582.203C584.321 112.342 586.723 110.577 589.406 109.094C592.16 107.54 595.338 106.763 598.94 106.763C604.801 106.763 609.003 108.741 611.546 112.696C614.159 116.58 615.465 121.806 615.465 128.373V161H597.245V130.704C597.245 127.314 596.821 125.054 595.974 123.924C595.126 122.794 593.785 122.229 591.948 122.229C590.254 122.229 588.841 122.582 587.711 123.289C586.581 123.995 585.31 124.984 583.898 126.255V161H565.678Z" fill="#000B1B"/>
<path d="M646.612 182.822C642.587 182.822 638.879 182.363 635.489 181.445C632.1 180.597 629.381 179.22 627.333 177.313C625.355 175.407 624.367 172.864 624.367 169.686C624.367 165.52 626.838 162.13 631.782 159.517V159.093C630.44 158.104 629.275 156.904 628.286 155.492C627.368 154.009 626.909 152.172 626.909 149.983C626.909 148.147 627.439 146.346 628.498 144.581C629.628 142.815 631.076 141.297 632.841 140.026V139.602C630.934 138.331 629.239 136.53 627.756 134.199C626.344 131.798 625.638 129.079 625.638 126.043C625.638 121.664 626.697 118.063 628.816 115.238C631.005 112.342 633.83 110.224 637.29 108.882C640.751 107.47 644.423 106.763 648.307 106.763C651.414 106.763 654.239 107.187 656.781 108.035H676.484V121.17H668.857C669.069 121.806 669.246 122.618 669.387 123.606C669.599 124.595 669.705 125.619 669.705 126.678C669.705 130.845 668.752 134.235 666.845 136.848C664.938 139.39 662.36 141.262 659.112 142.462C655.863 143.663 652.262 144.263 648.307 144.263C646.541 144.263 644.564 144.016 642.375 143.521C641.527 144.298 641.104 145.322 641.104 146.593C641.104 147.723 641.669 148.535 642.799 149.03C643.999 149.524 645.906 149.771 648.519 149.771H656.464C663.102 149.771 668.222 150.866 671.824 153.055C675.496 155.174 677.332 158.669 677.332 163.542C677.332 167.356 676.061 170.71 673.518 173.606C671.047 176.501 667.516 178.761 662.925 180.385C658.335 182.01 652.897 182.822 646.612 182.822ZM648.307 133.458C650.002 133.458 651.379 132.858 652.438 131.657C653.498 130.457 654.027 128.585 654.027 126.043C654.027 123.571 653.498 121.77 652.438 120.64C651.379 119.44 650.002 118.84 648.307 118.84C646.612 118.84 645.235 119.44 644.176 120.64C643.116 121.77 642.587 123.571 642.587 126.043C642.587 128.585 643.116 130.457 644.176 131.657C645.235 132.858 646.612 133.458 648.307 133.458ZM649.578 171.593C652.544 171.593 655.016 171.134 656.993 170.216C658.971 169.368 659.959 168.203 659.959 166.72C659.959 165.308 659.324 164.425 658.053 164.072C656.852 163.719 655.122 163.542 652.862 163.542H648.731C646.612 163.542 644.988 163.472 643.858 163.33C642.799 163.26 641.88 163.119 641.104 162.907C639.832 164.178 639.197 165.449 639.197 166.72C639.197 168.415 640.15 169.651 642.057 170.428C644.034 171.205 646.541 171.593 649.578 171.593Z" fill="#000B1B"/>
<path d="M707.85 161V92.145H752.764V107.399H726.07V120.534H748.951V135.788H726.07V161H707.85Z" fill="#000B1B"/>
<path d="M772.689 162.271C769.37 162.271 766.51 161.53 764.109 160.047C761.779 158.493 759.978 156.48 758.707 154.009C757.435 151.537 756.8 148.853 756.8 145.958C756.8 140.449 759.06 136.142 763.579 133.034C768.099 129.856 775.444 127.738 785.613 126.678C785.189 123.006 782.717 121.17 778.198 121.17C776.291 121.17 774.278 121.558 772.16 122.335C770.041 123.041 767.605 124.136 764.85 125.619L758.495 113.755C762.238 111.495 766.016 109.765 769.829 108.564C773.713 107.364 777.703 106.763 781.799 106.763C788.72 106.763 794.123 108.741 798.007 112.696C801.891 116.58 803.833 122.865 803.833 131.551V161H789.003L787.732 155.915H787.308C785.189 157.822 782.929 159.376 780.528 160.576C778.198 161.706 775.585 162.271 772.689 162.271ZM779.045 148.288C780.528 148.288 781.764 147.97 782.753 147.335C783.741 146.629 784.695 145.746 785.613 144.687V137.483C781.305 138.119 778.304 139.072 776.609 140.343C774.985 141.615 774.172 142.992 774.172 144.475C774.172 147.017 775.797 148.288 779.045 148.288Z" fill="#000B1B"/>
<path d="M839.652 162.271C834.638 162.271 830.118 161.176 826.093 158.987C822.067 156.798 818.854 153.655 816.453 149.559C814.122 145.393 812.957 140.379 812.957 134.517C812.957 128.656 814.264 123.677 816.877 119.581C819.56 115.414 823.056 112.237 827.364 110.047C831.671 107.858 836.332 106.763 841.346 106.763C844.524 106.763 847.385 107.258 849.927 108.246C852.54 109.235 854.835 110.577 856.812 112.272L848.338 123.924C847.208 122.936 846.184 122.265 845.266 121.912C844.348 121.558 843.395 121.382 842.406 121.382C839.016 121.382 836.368 122.582 834.461 124.984C832.554 127.314 831.601 130.492 831.601 134.517C831.601 138.543 832.59 141.756 834.567 144.157C836.544 146.487 838.945 147.653 841.77 147.653C843.253 147.653 844.701 147.335 846.113 146.699C847.596 145.993 848.974 145.181 850.245 144.263L857.236 156.127C854.623 158.458 851.728 160.082 848.55 161C845.372 161.847 842.406 162.271 839.652 162.271Z" fill="#000B1B"/>
<path d="M887.046 162.271C881.89 162.271 877.229 161.176 873.063 158.987C868.967 156.798 865.718 153.655 863.317 149.559C860.916 145.393 859.716 140.379 859.716 134.517C859.716 128.797 860.916 123.889 863.317 119.793C865.789 115.626 868.967 112.413 872.851 110.153C876.735 107.893 880.831 106.763 885.139 106.763C890.365 106.763 894.673 107.929 898.062 110.259C901.523 112.519 904.065 115.591 905.689 119.475C907.384 123.359 908.232 127.667 908.232 132.399C908.232 133.952 908.126 135.471 907.914 136.954C907.773 138.366 907.631 139.39 907.49 140.026H877.3C878.147 143.204 879.666 145.428 881.855 146.699C884.044 147.9 886.622 148.5 889.588 148.5C892.978 148.5 896.579 147.441 900.393 145.322L906.325 156.127C903.5 158.104 900.322 159.623 896.791 160.682C893.26 161.741 890.012 162.271 887.046 162.271ZM877.088 128.161H892.766C892.766 126.113 892.236 124.348 891.177 122.865C890.188 121.311 888.317 120.534 885.563 120.534C883.585 120.534 881.82 121.135 880.266 122.335C878.712 123.536 877.653 125.478 877.088 128.161Z" fill="#000B1B"/>
<g filter="url(#filter0_d_3_49)">
<path d="M248.378 171.091C247.84 169.064 246.971 167.141 245.804 165.399C246.054 164.481 246.244 163.549 246.372 162.608C247.2 156.632 245.129 151.161 241.224 146.927C239.109 144.615 236.842 143.089 234.441 142.152C236.017 135.409 236.815 128.508 236.819 121.583C236.819 118.421 236.64 115.323 236.34 112.271C236.186 110.744 235.99 109.218 235.773 107.71C235.085 103.237 234.065 98.8217 232.721 94.5008C231.827 91.6441 230.823 88.8522 229.668 86.1264C227.938 82.0685 225.92 78.1403 223.627 74.3721C222.122 71.8654 220.484 69.4414 218.719 67.1105C217.847 65.9328 216.953 64.7765 216.015 63.6649C213.238 60.2885 210.218 57.118 206.982 54.1783C205.915 53.1946 204.802 52.2368 203.668 51.3166C202.555 50.3794 201.4 49.4851 200.244 48.6123C197.91 46.8675 195.468 45.2319 192.981 43.7053C179.2 35.3358 163.039 30.5361 145.766 30.5361C95.4746 30.5361 54.714 71.2976 54.714 121.587C54.7126 128.598 55.525 135.586 57.135 142.411C54.9752 143.349 52.9039 144.81 50.9847 146.925C47.0809 151.156 45.0088 156.608 45.8378 162.583C45.9631 163.533 46.1526 164.473 46.4048 165.397C45.2386 167.14 44.3688 169.064 43.8309 171.091C42.6316 175.652 43.026 179.765 44.5509 183.368C42.8937 188.079 43.3078 193.095 45.4667 197.456C47.0371 200.641 49.2836 203.104 52.0534 205.307C55.3463 207.924 59.4683 210.149 64.4407 212.282C70.3728 214.812 77.6133 217.189 80.9062 218.061C89.4121 220.264 97.5682 221.66 105.835 221.727C117.611 221.837 127.753 219.067 135.015 211.98C138.582 212.417 142.172 212.636 145.766 212.635C149.563 212.627 153.356 212.387 157.124 211.919C164.368 219.051 174.549 221.846 186.369 221.733C194.634 221.668 202.79 220.272 211.274 218.066C214.589 217.194 221.827 214.817 227.762 212.288C232.735 210.15 236.856 207.926 240.172 205.312C242.92 203.11 245.165 200.646 246.736 197.461C248.917 193.1 249.31 188.084 247.674 183.373C249.185 179.77 249.577 175.648 248.378 171.091ZM239.939 183.063C241.61 186.234 241.717 189.817 240.242 193.154C238.006 198.212 232.452 202.195 221.665 206.472C214.958 209.133 208.815 210.833 208.761 210.849C199.889 213.15 191.865 214.318 184.919 214.318C173.417 214.318 164.859 211.145 159.431 204.877C150.252 206.44 140.879 206.493 131.683 205.034C126.249 211.198 117.738 214.318 106.333 214.318C99.3865 214.318 91.3628 213.15 82.4909 210.849C82.4363 210.833 76.2968 209.133 69.5866 206.472C58.8002 202.195 53.2446 198.214 51.0097 193.154C49.535 189.817 49.6423 186.234 51.3129 183.063C51.4676 182.769 51.633 182.481 51.8101 182.204C50.8088 180.7 50.1373 179.001 49.8394 177.218C49.5417 175.436 49.6244 173.611 50.0823 171.862C50.7459 169.34 52.1178 167.242 53.9798 165.735C53.0831 164.261 52.4947 162.62 52.2501 160.913C51.7135 157.199 52.9459 153.49 55.7201 150.467C57.879 148.114 60.9323 146.819 64.3128 146.819H64.4022C61.8538 138.65 60.5616 130.141 60.5701 121.584C60.5701 74.9123 98.4066 37.0743 145.084 37.0743C191.762 37.0743 229.598 74.9087 229.598 121.584C229.604 130.164 228.303 138.694 225.739 146.883C226.147 146.843 226.547 146.822 226.939 146.822C230.319 146.822 233.373 148.116 235.532 150.469C238.304 153.49 239.539 157.202 239.002 160.915C238.757 162.623 238.169 164.264 237.272 165.738C239.134 167.244 240.506 169.342 241.17 171.865C241.627 173.613 241.71 175.438 241.412 177.221C241.115 179.003 240.443 180.702 239.442 182.207C239.619 182.481 239.786 182.769 239.939 183.063Z" fill="white"/>
</g>
<path d="M239.442 182.207C240.443 180.703 241.115 179.003 241.412 177.221C241.71 175.439 241.627 173.614 241.17 171.865C240.506 169.343 239.134 167.245 237.272 165.738C238.168 164.264 238.757 162.624 239.002 160.916C239.538 157.202 238.306 153.493 235.532 150.47C233.373 148.117 230.319 146.822 226.939 146.822C226.546 146.822 226.147 146.842 225.739 146.883C228.3 138.695 229.599 130.164 229.591 121.585C229.591 74.9135 191.754 37.0754 145.081 37.0754C98.4079 37.0754 60.5672 74.9099 60.5672 121.585C60.5588 130.143 61.851 138.651 64.3994 146.82H64.3099C60.9294 146.82 57.8762 148.115 55.7173 150.468C52.9449 153.489 51.7107 157.2 52.2473 160.914C52.4918 162.622 53.0802 164.262 53.9769 165.736C52.1149 167.243 50.743 169.341 50.0795 171.864C49.6217 173.612 49.5392 175.438 49.8375 177.221C50.1358 179.003 50.808 180.703 51.81 182.207C51.6311 182.484 51.4675 182.772 51.3127 183.066C49.6421 186.237 49.5348 189.82 51.0095 193.157C53.2453 198.214 58.8 202.199 69.5865 206.475C76.294 209.136 82.4362 210.836 82.4908 210.852C91.3626 213.153 99.3864 214.322 106.332 214.322C117.738 214.322 126.248 211.202 131.683 205.037C140.879 206.496 150.252 206.443 159.431 204.88C164.858 211.148 173.417 214.322 184.919 214.322C191.865 214.322 199.889 213.153 208.761 210.852C208.815 210.836 214.955 209.136 221.665 206.475C232.452 202.199 238.007 198.214 240.242 193.157C241.717 189.82 241.61 186.237 239.939 183.066C239.786 182.769 239.619 182.482 239.442 182.207ZM127.795 195.387C127.35 196.169 126.849 196.967 126.292 197.782C124.887 199.839 123.039 201.41 120.895 202.579C116.794 204.814 111.605 205.596 106.332 205.596C98.0038 205.596 89.4656 203.647 84.6801 202.405C84.4448 202.344 55.3461 194.125 59.0308 187.129C59.6496 185.953 60.671 185.483 61.9552 185.483C67.1423 185.483 76.5873 193.207 80.6466 193.207C81.5535 193.207 82.1929 192.82 82.4541 191.879C84.1837 185.674 56.1609 183.066 58.521 174.082C58.9377 172.492 60.0673 171.847 61.6556 171.847C68.5133 171.846 83.9047 183.906 87.1243 183.906C87.3711 183.906 87.5482 183.834 87.6439 183.682C87.6582 183.658 87.6725 183.636 87.6859 183.613C89.1964 181.118 88.3298 179.304 77.978 172.964C77.656 172.767 77.3248 172.566 76.9844 172.359C65.5933 165.464 57.598 161.316 62.1457 156.366C62.6689 155.794 63.4103 155.541 64.3109 155.541C65.3796 155.541 66.6728 155.899 68.0966 156.498C74.1127 159.035 82.4505 165.954 85.9339 168.972C86.9606 169.866 87.5661 170.412 87.5661 170.412C87.5661 170.412 91.9759 174.998 94.6428 174.998C95.2566 174.998 95.7769 174.757 96.13 174.158C98.0218 170.97 78.5673 156.228 77.4709 150.146C76.7268 146.024 77.9923 143.937 80.3327 143.937C81.4453 143.937 82.8038 144.41 84.3018 145.361C88.9523 148.313 97.9304 163.741 101.217 169.742C102.319 171.754 104.2 172.604 105.895 172.604C109.258 172.604 111.887 169.261 106.203 165.013C97.6604 158.62 100.658 148.172 104.735 147.529C104.909 147.502 105.085 147.488 105.26 147.487C108.968 147.487 110.604 153.877 110.604 153.877C110.604 153.877 115.397 165.915 123.632 174.143C131.105 181.612 132.148 187.742 127.795 195.387ZM154.424 196.797L153.997 196.848C153.753 196.877 153.511 196.904 153.268 196.932C152.885 196.971 152.502 197.009 152.117 197.045L151.741 197.079L151.399 197.108L150.912 197.147C150.733 197.16 150.554 197.174 150.375 197.185L149.839 197.221L149.721 197.228C149.581 197.236 149.44 197.245 149.299 197.253L149.12 197.262C148.953 197.271 148.787 197.279 148.62 197.287L148.039 197.311L147.511 197.329L147.159 197.339H146.981C146.871 197.339 146.762 197.345 146.652 197.346C146.593 197.346 146.535 197.346 146.477 197.346C146.367 197.346 146.258 197.346 146.148 197.352L145.701 197.357C145.493 197.357 145.285 197.357 145.075 197.357C144.584 197.357 144.095 197.352 143.606 197.343L143.21 197.334C143.098 197.334 142.985 197.328 142.873 197.325L142.454 197.312L141.932 197.292L141.463 197.272L141.341 197.267L140.894 197.243C140.77 197.236 140.646 197.23 140.523 197.222L140.234 197.205C139.869 197.182 139.507 197.156 139.145 197.128L138.765 197.098C138.605 197.085 138.445 197.071 138.285 197.057C138.098 197.04 137.912 197.023 137.724 197.005C137.41 196.975 137.097 196.944 136.785 196.909H136.77C141.34 186.714 139.029 177.193 129.794 167.965C123.738 161.917 119.708 152.984 118.873 151.023C117.181 145.218 112.702 138.765 105.265 138.765C104.637 138.766 104.009 138.816 103.388 138.914C100.129 139.426 97.2811 141.302 95.2493 144.124C93.0535 141.393 90.9198 139.222 88.989 137.995C86.0797 136.151 83.1758 135.215 80.3461 135.215C76.8153 135.215 73.6593 136.665 71.4592 139.295L71.4038 139.362C71.3618 139.189 71.3215 139.016 71.2803 138.841L71.275 138.819C71.1516 138.286 71.0323 137.75 70.9173 137.209C70.7283 136.309 70.5556 135.403 70.3994 134.491C70.3398 134.133 70.2802 133.771 70.2206 133.407C70.2206 133.394 70.2206 133.382 70.2152 133.37C70.1938 133.233 70.1732 133.095 70.1526 132.959C70.1401 132.878 70.1276 132.795 70.116 132.714C70.0954 132.573 70.0748 132.432 70.0551 132.292C70.0292 132.107 70.0033 131.922 69.9791 131.738C69.955 131.554 69.9299 131.369 69.9067 131.184C69.8834 130.998 69.8611 130.813 69.8387 130.628C69.8163 130.443 69.7976 130.276 69.7779 130.1L69.7725 130.055C69.7326 129.689 69.6944 129.323 69.658 128.955C69.624 128.601 69.5925 128.248 69.5633 127.893C69.5552 127.804 69.548 127.71 69.5409 127.616C69.5284 127.46 69.5168 127.302 69.5051 127.145C69.4953 127.016 69.4863 126.886 69.4783 126.755C69.4783 126.725 69.4738 126.694 69.472 126.666C69.4604 126.492 69.4488 126.318 69.439 126.144C69.4273 125.955 69.4175 125.766 69.4076 125.577C69.3978 125.389 69.388 125.2 69.3799 125.01C69.3728 124.845 69.3656 124.68 69.3593 124.515L69.354 124.365C69.3486 124.213 69.3432 124.06 69.3388 123.907L69.328 123.519C69.328 123.364 69.3209 123.208 69.3182 123.053C69.3155 122.899 69.3119 122.728 69.3102 122.564C69.3084 122.401 69.3102 122.239 69.3057 122.076C69.3012 121.912 69.3057 121.749 69.3057 121.585C69.3057 79.7327 103.237 45.8019 145.093 45.8019C186.949 45.8019 220.879 79.7308 220.879 121.585C220.879 121.749 220.879 121.912 220.879 122.076C220.879 122.239 220.879 122.402 220.879 122.564C220.879 122.727 220.875 122.891 220.871 123.053C220.871 123.189 220.866 123.322 220.862 123.458C220.862 123.579 220.857 123.699 220.852 123.816C220.852 123.969 220.843 124.121 220.838 124.274V124.287C220.831 124.466 220.824 124.643 220.817 124.818C220.811 124.973 220.804 125.129 220.797 125.283L220.791 125.393C220.783 125.558 220.774 125.724 220.765 125.889C220.757 126.021 220.75 126.151 220.741 126.282C220.693 127.077 220.633 127.869 220.562 128.657C220.55 128.796 220.537 128.935 220.523 129.073C220.523 129.078 220.523 129.082 220.523 129.086C220.507 129.26 220.489 129.434 220.47 129.609C220.456 129.746 220.442 129.882 220.426 130.019C220.396 130.288 220.366 130.556 220.336 130.824L220.285 131.231C220.264 131.39 220.243 131.549 220.222 131.709C220.2 131.884 220.176 132.058 220.151 132.232C220.124 132.427 220.095 132.621 220.067 132.815L219.997 133.273C219.97 133.447 219.943 133.62 219.915 133.793C219.887 133.966 219.859 134.138 219.826 134.311C219.792 134.483 219.766 134.655 219.736 134.828C219.676 135.172 219.614 135.515 219.547 135.858C219.484 136.187 219.418 136.515 219.352 136.842C219.315 137.026 219.276 137.211 219.237 137.396C219.201 137.565 219.165 137.733 219.128 137.902C219.091 138.071 219.053 138.241 219.014 138.41C216.881 136.337 214.057 135.208 210.941 135.208C208.114 135.208 205.208 136.143 202.299 137.988C200.368 139.214 198.235 141.386 196.038 144.117C194.003 141.294 191.155 139.419 187.9 138.906C187.279 138.809 186.65 138.759 186.022 138.758C178.583 138.758 174.107 145.211 172.414 151.016C171.575 152.977 167.545 161.909 161.482 167.967C152.254 177.165 149.925 186.644 154.424 196.797ZM232.664 176.389C232.655 176.417 232.645 176.446 232.634 176.478C232.613 176.535 232.592 176.592 232.569 176.648C232.533 176.732 232.496 176.816 232.455 176.899C232.428 176.955 232.401 177.011 232.371 177.065C232.297 177.203 232.216 177.338 232.127 177.473C232.019 177.634 231.902 177.793 231.774 177.951C231.712 178.029 231.646 178.107 231.578 178.184C231.532 178.236 231.488 178.287 231.436 178.338C231.366 178.415 231.291 178.49 231.217 178.565C229.87 179.9 227.818 181.069 225.498 182.143C225.235 182.262 224.969 182.381 224.699 182.5L224.431 182.619C224.252 182.698 224.074 182.777 223.886 182.854C223.707 182.931 223.52 183.009 223.335 183.085L222.777 183.316C221.472 183.853 220.135 184.364 218.83 184.87L218.273 185.086L217.721 185.302C217.355 185.445 216.993 185.588 216.636 185.731L216.105 185.945L215.584 186.159L215.327 186.266C215.157 186.338 214.989 186.408 214.823 186.48C210.985 188.126 208.225 189.801 208.805 191.88C208.821 191.939 208.839 191.995 208.859 192.049C208.911 192.203 208.982 192.349 209.07 192.485C209.122 192.567 209.182 192.644 209.249 192.714C209.931 193.422 211.172 193.31 212.737 192.748C212.864 192.702 212.994 192.653 213.125 192.601C213.215 192.567 213.304 192.531 213.394 192.495L213.529 192.438C213.887 192.286 214.266 192.117 214.654 191.932C214.751 191.887 214.849 191.843 214.947 191.791C216.86 190.856 219.029 189.595 221.181 188.448C221.511 188.269 221.842 188.098 222.171 187.928C222.72 187.644 223.264 187.373 223.8 187.123C225.838 186.165 227.753 185.485 229.294 185.485C230.016 185.485 230.655 185.633 231.186 185.973L231.275 186.032C231.333 186.071 231.389 186.114 231.444 186.159C231.643 186.323 231.82 186.513 231.969 186.723C232.013 186.786 232.059 186.851 232.098 186.918C232.14 186.986 232.179 187.057 232.218 187.13C232.979 188.574 232.342 190.071 230.852 191.538C229.421 192.946 227.195 194.327 224.664 195.606C224.477 195.701 224.288 195.796 224.098 195.888C216.567 199.586 206.707 202.371 206.569 202.406C203.941 203.087 200.183 203.982 195.95 204.651L195.323 204.748L195.221 204.763C194.994 204.797 194.767 204.83 194.539 204.863C194.292 204.898 194.045 204.932 193.796 204.965C193.312 205.029 192.824 205.089 192.333 205.144L192.244 205.153C190.489 205.353 188.689 205.498 186.886 205.559H186.859C186.211 205.583 185.564 205.594 184.916 205.594C184.813 205.594 184.709 205.594 184.606 205.594H184.516C184.401 205.594 184.286 205.594 184.17 205.594C183.794 205.589 183.419 205.58 183.044 205.566C182.429 205.544 181.818 205.508 181.21 205.46C181.187 205.46 181.163 205.46 181.139 205.455C180.908 205.437 180.678 205.416 180.448 205.393C180.326 205.382 180.204 205.37 180.083 205.356C179.716 205.317 179.352 205.272 178.99 205.223C178.75 205.191 178.509 205.155 178.275 205.117C178.041 205.078 177.791 205.037 177.55 204.995C177.44 204.975 177.331 204.955 177.222 204.933L177.196 204.928C176.848 204.862 176.502 204.789 176.16 204.71C175.961 204.665 175.761 204.62 175.564 204.567L175.446 204.536C175.348 204.512 175.252 204.486 175.156 204.46L175.103 204.446L174.794 204.357C174.683 204.325 174.571 204.292 174.459 204.259L174.419 204.247L174.128 204.158C174.018 204.124 173.909 204.088 173.8 204.053C173.71 204.023 173.621 203.992 173.531 203.963L173.334 203.894C173.144 203.828 172.956 203.758 172.768 203.686L172.59 203.617L172.443 203.558C172.158 203.443 171.876 203.324 171.599 203.2L171.413 203.111L171.382 203.097C171.316 203.066 171.251 203.035 171.185 203.007C171.056 202.945 170.928 202.881 170.801 202.816L170.763 202.797L170.579 202.7C170.368 202.59 170.162 202.476 169.958 202.357C169.843 202.291 169.73 202.223 169.617 202.154L169.445 202.049C169.356 201.995 169.275 201.94 169.19 201.885L168.966 201.736C168.884 201.682 168.804 201.626 168.725 201.57L168.581 201.468C168.429 201.359 168.279 201.247 168.133 201.133C168.055 201.073 167.978 201.011 167.901 200.954C167.808 200.879 167.716 200.803 167.625 200.726C167.548 200.662 167.472 200.597 167.398 200.531L167.391 200.525C167.31 200.455 167.231 200.383 167.152 200.311C167.075 200.24 166.997 200.168 166.92 200.095L166.912 200.085C166.832 200.009 166.754 199.933 166.676 199.854C166.599 199.775 166.521 199.697 166.446 199.618C166.37 199.538 166.294 199.457 166.22 199.374C166.145 199.292 166.077 199.217 166.008 199.137L165.984 199.11C165.916 199.031 165.849 198.952 165.783 198.872C165.64 198.701 165.502 198.526 165.367 198.346C165.232 198.167 165.101 197.983 164.972 197.795C164.93 197.734 164.889 197.673 164.848 197.612C164.766 197.49 164.684 197.368 164.605 197.247C164.526 197.126 164.447 197.005 164.369 196.884C164.291 196.765 164.216 196.646 164.141 196.526C164.103 196.466 164.066 196.407 164.03 196.348C163.96 196.234 163.891 196.121 163.824 196.009C163.815 195.993 163.806 195.978 163.796 195.963C163.731 195.853 163.666 195.744 163.604 195.636C163.569 195.577 163.536 195.518 163.503 195.457C163.47 195.395 163.431 195.332 163.396 195.269C163.377 195.236 163.359 195.203 163.34 195.17C163.321 195.137 163.315 195.127 163.305 195.105C163.237 194.986 163.171 194.865 163.107 194.742C163.078 194.689 163.049 194.635 163.018 194.582L162.928 194.41L162.839 194.239C162.781 194.123 162.724 194.007 162.667 193.892C162.638 193.834 162.611 193.777 162.585 193.721C162.526 193.598 162.47 193.477 162.414 193.356C162.392 193.307 162.369 193.258 162.349 193.209C162.297 193.096 162.248 192.983 162.2 192.87C162.176 192.814 162.152 192.757 162.13 192.702C162.083 192.589 162.04 192.477 161.994 192.365C161.972 192.312 161.951 192.258 161.931 192.204C161.845 191.979 161.764 191.754 161.688 191.531C161.668 191.475 161.649 191.42 161.633 191.365C161.6 191.265 161.567 191.166 161.538 191.066C161.483 190.891 161.432 190.716 161.387 190.543C161.371 190.488 161.356 190.433 161.343 190.379C161.3 190.216 161.261 190.053 161.225 189.89C161.199 189.782 161.177 189.673 161.156 189.565C161.144 189.51 161.133 189.456 161.124 189.402C161.103 189.294 161.084 189.187 161.067 189.079C161.04 188.918 161.017 188.757 160.998 188.597C160.989 188.543 160.983 188.49 160.978 188.438C160.972 188.385 160.966 188.33 160.961 188.276C160.939 188.062 160.922 187.849 160.911 187.637C160.911 187.584 160.906 187.53 160.905 187.477C160.9 187.371 160.897 187.265 160.896 187.159C160.84 182.887 163.003 178.778 167.626 174.157C175.86 165.93 180.654 153.891 180.654 153.891C180.654 153.891 180.783 153.386 181.052 152.66C181.088 152.559 181.128 152.454 181.171 152.346C181.222 152.216 181.277 152.081 181.335 151.942C181.413 151.756 181.499 151.564 181.592 151.369C181.626 151.296 181.662 151.222 181.699 151.149C181.712 151.123 181.724 151.098 181.737 151.073C181.761 151.024 181.786 150.974 181.812 150.925C181.955 150.651 182.112 150.374 182.282 150.103C182.327 150.03 182.371 149.957 182.423 149.885C182.521 149.739 182.622 149.596 182.727 149.457C182.779 149.387 182.832 149.319 182.887 149.251C182.977 149.139 183.073 149.029 183.171 148.923C183.209 148.88 183.248 148.839 183.288 148.798C183.766 148.306 184.311 147.904 184.928 147.689L185.006 147.664C185.058 147.647 185.109 147.631 185.162 147.616C185.223 147.6 185.285 147.586 185.348 147.572L185.376 147.567C185.507 147.541 185.638 147.523 185.771 147.514H185.783C185.852 147.514 185.921 147.507 185.992 147.507C186.081 147.507 186.164 147.507 186.252 147.517C186.341 147.524 186.431 147.535 186.52 147.549C187.262 147.666 187.969 148.108 188.577 148.79C188.604 148.822 188.632 148.854 188.659 148.886C188.799 149.051 188.93 149.223 189.051 149.402C189.101 149.474 189.15 149.55 189.197 149.626C189.317 149.819 189.43 150.022 189.537 150.235C189.58 150.325 189.621 150.407 189.662 150.495C189.682 150.54 189.702 150.584 189.721 150.63C189.761 150.719 189.798 150.809 189.835 150.903C189.872 150.993 189.908 151.09 189.941 151.185C190.1 151.632 190.226 152.091 190.32 152.556C190.342 152.662 190.361 152.77 190.38 152.878C190.446 153.268 190.49 153.662 190.515 154.057C190.522 154.171 190.527 154.287 190.531 154.404C190.538 154.677 190.538 154.953 190.531 155.233C190.526 155.339 190.521 155.446 190.513 155.553C190.443 156.564 190.245 157.563 189.923 158.524C189.866 158.691 189.807 158.857 189.744 159.025C189.701 159.135 189.654 159.247 189.61 159.359C189.52 159.581 189.417 159.806 189.308 160.024C189.226 160.19 189.141 160.355 189.05 160.52C188.989 160.63 188.926 160.741 188.863 160.851C188.702 161.125 188.528 161.397 188.342 161.667L188.228 161.829C188.074 162.044 187.912 162.257 187.741 162.468C187.432 162.848 187.104 163.212 186.757 163.557C186.227 164.088 185.659 164.579 185.058 165.028C184.514 165.429 184.002 165.869 183.523 166.345C183.47 166.399 183.418 166.452 183.368 166.504C181.865 168.082 181.515 169.473 181.853 170.528C181.869 170.577 181.886 170.624 181.904 170.671C181.931 170.741 181.962 170.809 181.994 170.877C182.016 170.921 182.039 170.966 182.064 171.008C182.165 171.181 182.285 171.342 182.422 171.488C182.439 171.507 182.457 171.525 182.475 171.543L182.528 171.596C182.583 171.649 182.64 171.7 182.7 171.749L182.76 171.798C182.8 171.829 182.842 171.86 182.884 171.887C182.992 171.963 183.105 172.034 183.221 172.097C183.267 172.122 183.31 172.147 183.363 172.171C183.536 172.257 183.715 172.329 183.899 172.389C183.95 172.406 184.001 172.421 184.053 172.436L184.119 172.453L184.208 172.477L184.286 172.496L184.369 172.514L184.452 172.531L184.531 172.544C184.59 172.555 184.65 172.564 184.709 172.572L184.767 172.58L184.87 172.591L184.934 172.597L185.04 172.605H185.101L185.211 172.61H185.26H185.363H185.409H185.558L185.657 172.605L185.771 172.598L185.91 172.585L186.04 172.569C186.069 172.569 186.099 172.561 186.129 172.556C186.195 172.546 186.262 172.535 186.328 172.523C186.492 172.492 186.654 172.453 186.814 172.406C186.978 172.358 187.139 172.303 187.296 172.239C187.349 172.218 187.403 172.195 187.455 172.172C187.545 172.134 187.634 172.092 187.716 172.048C187.786 172.014 187.855 171.976 187.923 171.938C188.026 171.88 188.128 171.818 188.227 171.752C188.456 171.602 188.672 171.433 188.875 171.249C188.922 171.205 188.97 171.159 189.016 171.115C189.038 171.093 189.061 171.072 189.082 171.049C189.127 171.004 189.171 170.96 189.215 170.91C189.303 170.816 189.388 170.716 189.471 170.612C189.685 170.342 189.875 170.055 190.04 169.753C191.375 167.315 193.648 163.321 196.191 159.24C196.29 159.082 196.387 158.925 196.485 158.769C196.584 158.612 196.683 158.454 196.782 158.297C196.931 158.059 197.08 157.823 197.229 157.59L197.38 157.355C197.48 157.198 197.581 157.042 197.681 156.886C198.085 156.261 198.49 155.643 198.898 155.031L199.203 154.575C199.815 153.669 200.426 152.787 201.03 151.948L201.332 151.534C201.779 150.916 202.226 150.325 202.665 149.767C202.908 149.457 203.148 149.159 203.385 148.873L203.668 148.535C203.714 148.478 203.757 148.423 203.808 148.368C203.902 148.259 203.994 148.152 204.085 148.047C204.131 147.994 204.175 147.942 204.223 147.891C204.315 147.788 204.405 147.686 204.491 147.588C204.535 147.539 204.581 147.49 204.626 147.442C204.76 147.297 204.893 147.157 205.022 147.024C205.112 146.935 205.195 146.845 205.282 146.762C205.788 146.243 206.348 145.778 206.951 145.375L207.09 145.286C207.137 145.256 207.18 145.228 207.231 145.196C207.32 145.141 207.409 145.087 207.505 145.035C209.869 143.694 211.827 143.595 212.953 144.721C213.636 145.404 214.013 146.535 213.993 148.108C213.993 148.178 213.993 148.247 213.987 148.319C213.987 148.344 213.987 148.371 213.987 148.397C213.987 148.468 213.981 148.541 213.976 148.614C213.976 148.703 213.965 148.793 213.956 148.882C213.947 148.972 213.943 149.04 213.934 149.119C213.934 149.142 213.929 149.165 213.926 149.188C213.919 149.258 213.91 149.329 213.901 149.399C213.901 149.421 213.901 149.442 213.892 149.464C213.884 149.538 213.873 149.612 213.861 149.686C213.859 149.707 213.856 149.728 213.851 149.748C213.84 149.837 213.825 149.922 213.809 150.009C213.802 150.059 213.792 150.108 213.784 150.158C213.758 150.3 213.724 150.441 213.683 150.579C213.64 150.724 213.589 150.873 213.53 151.026C213.49 151.128 213.447 151.231 213.401 151.336C213.354 151.442 213.303 151.547 213.25 151.655C213.142 151.872 213.02 152.094 212.886 152.324C212.819 152.437 212.75 152.554 212.676 152.671C212.64 152.729 212.603 152.787 212.564 152.849C212.45 153.028 212.331 153.209 212.207 153.392C212.083 153.575 211.95 153.762 211.807 153.951C211.622 154.203 211.427 154.46 211.221 154.72L211.065 154.917C210.803 155.245 210.528 155.579 210.24 155.919C210.067 156.124 209.891 156.329 209.71 156.537C209.589 156.674 209.467 156.813 209.343 156.952L209.156 157.162C208.905 157.443 208.648 157.726 208.387 158.011L208.189 158.225C208.058 158.367 207.921 158.511 207.79 158.654C207.658 158.797 207.521 158.942 207.384 159.087L206.972 159.521C206.835 159.665 206.695 159.811 206.555 159.956C206.416 160.101 206.276 160.248 206.135 160.393C205.853 160.684 205.57 160.976 205.286 161.268C201.231 165.427 196.958 169.572 195.512 172.156C195.416 172.325 195.329 172.498 195.25 172.675C195.045 173.145 194.959 173.547 195.017 173.872C195.036 173.979 195.074 174.082 195.129 174.175C195.171 174.248 195.218 174.317 195.269 174.384C195.317 174.447 195.369 174.506 195.424 174.562C195.477 174.614 195.532 174.663 195.592 174.707C195.889 174.919 196.249 175.028 196.614 175.017H196.728L196.845 175.009L196.963 174.995L197.06 174.981C197.073 174.98 197.086 174.977 197.099 174.974L197.188 174.957L197.212 174.951L197.31 174.93L197.345 174.921C197.379 174.913 197.415 174.903 197.45 174.894C197.484 174.884 197.533 174.87 197.575 174.857C197.657 174.832 197.739 174.804 197.823 174.773C197.907 174.743 198.002 174.707 198.091 174.669C198.181 174.631 198.27 174.593 198.354 174.552C198.398 174.531 198.443 174.511 198.486 174.488L198.619 174.422C198.793 174.334 198.966 174.239 199.14 174.136C199.279 174.054 199.417 173.97 199.555 173.881L199.689 173.792C199.733 173.764 199.778 173.735 199.822 173.702L199.955 173.613L200.025 173.564C200.089 173.52 200.154 173.475 200.217 173.43C200.396 173.306 200.563 173.179 200.733 173.05L200.748 173.039C200.837 172.97 200.927 172.9 201.016 172.831C201.383 172.541 201.732 172.249 202.047 171.974L202.257 171.789L202.277 171.771L202.386 171.674C202.644 171.443 202.874 171.227 203.066 171.048L203.144 170.972C203.213 170.907 203.276 170.846 203.333 170.793L203.446 170.683L203.485 170.643L203.496 170.632C203.543 170.585 203.585 170.543 203.613 170.515C203.654 170.472 203.679 170.446 203.688 170.439L203.696 170.431L203.732 170.399C203.743 170.387 203.758 170.375 203.775 170.36L203.789 170.347L203.827 170.313L204.03 170.134L204.144 170.031C204.2 169.983 204.261 169.928 204.323 169.869L204.46 169.749C204.484 169.729 204.508 169.706 204.533 169.684L204.676 169.559L204.887 169.375L204.998 169.278C205.433 168.899 205.963 168.442 206.57 167.927L206.819 167.717L207.231 167.372C207.368 167.256 207.508 167.14 207.651 167.02C208.201 166.564 208.793 166.079 209.419 165.575L209.83 165.245C210.18 164.967 210.54 164.682 210.904 164.396C211.05 164.281 211.199 164.166 211.351 164.052C211.574 163.879 211.8 163.706 212.028 163.532C212.174 163.419 212.324 163.306 212.475 163.194C213.333 162.546 214.218 161.897 215.113 161.264L215.498 160.997C215.766 160.811 216.034 160.626 216.303 160.445L216.546 160.28C216.799 160.11 217.052 159.942 217.304 159.776C217.537 159.625 217.769 159.475 218.001 159.329L218.244 159.176L218.485 159.026C218.726 158.877 218.967 158.729 219.205 158.586L219.444 158.444L219.923 158.165C220.08 158.074 220.236 157.985 220.392 157.897L220.486 157.844C220.61 157.776 220.734 157.708 220.858 157.641C221.012 157.557 221.167 157.476 221.32 157.397L221.55 157.279L221.772 157.166C221.85 157.129 221.927 157.091 222.003 157.053C222.45 156.834 222.898 156.634 223.323 156.459C223.395 156.429 223.466 156.4 223.537 156.369C223.678 156.31 223.818 156.256 223.957 156.208C224.096 156.161 224.233 156.112 224.368 156.064C224.491 156.023 224.61 155.985 224.726 155.949L224.765 155.937C224.827 155.918 224.889 155.9 224.951 155.884L224.969 155.879C225.097 155.842 225.224 155.809 225.348 155.78H225.358C225.545 155.735 225.727 155.697 225.905 155.667C225.966 155.657 226.026 155.647 226.084 155.639C226.203 155.621 226.32 155.607 226.435 155.596C226.492 155.591 226.549 155.586 226.605 155.583C226.718 155.575 226.828 155.572 226.936 155.572C226.965 155.572 226.992 155.572 227.02 155.572C227.132 155.572 227.24 155.579 227.347 155.59C227.396 155.59 227.445 155.599 227.493 155.606H227.513C227.561 155.611 227.61 155.619 227.657 155.629C227.704 155.639 227.752 155.646 227.798 155.657H227.814C227.86 155.667 227.903 155.68 227.951 155.693C228 155.707 228.045 155.72 228.091 155.737C228.251 155.79 228.404 155.859 228.549 155.943C228.59 155.967 228.63 155.992 228.669 156.018C228.709 156.044 228.747 156.071 228.785 156.099C228.851 156.149 228.914 156.202 228.975 156.258L229.001 156.284C229.019 156.301 229.036 156.318 229.052 156.334L229.102 156.387C229.503 156.809 229.835 157.292 230.085 157.818C230.099 157.848 230.111 157.877 230.124 157.907C230.149 157.966 230.172 158.025 230.193 158.086C230.246 158.23 230.289 158.376 230.323 158.526C230.453 159.117 230.418 159.733 230.221 160.305C230.204 160.357 230.186 160.409 230.166 160.461C230.092 160.655 230.007 160.844 229.909 161.028C229.882 161.077 229.855 161.127 229.827 161.176C229.515 161.699 229.147 162.186 228.728 162.628L228.638 162.723C228.506 162.863 228.367 163.003 228.222 163.143C228.158 163.205 228.091 163.268 228.025 163.33C227.958 163.393 227.889 163.456 227.819 163.519L227.713 163.615C227.642 163.678 227.57 163.741 227.496 163.804C227.349 163.93 227.198 164.058 227.04 164.186C227 164.218 226.959 164.25 226.92 164.284C226.761 164.412 226.597 164.542 226.427 164.672C226.129 164.9 225.819 165.131 225.498 165.363C225.22 165.563 224.933 165.765 224.636 165.969C224.278 166.214 223.908 166.461 223.526 166.712C222.847 167.158 222.129 167.615 221.373 168.084C221.164 168.213 220.954 168.344 220.74 168.474C218.773 169.684 216.592 170.978 214.266 172.385L213.664 172.751C213.005 173.153 212.383 173.537 211.798 173.902L211.503 174.088L210.945 174.446C210.724 174.586 210.509 174.724 210.3 174.86C210.142 174.961 209.988 175.061 209.837 175.16L209.539 175.356C209.392 175.452 209.247 175.548 209.106 175.643L208.966 175.732C208.818 175.831 208.674 175.928 208.534 176.024L208.305 176.18L208.036 176.367L207.788 176.54C207.37 176.834 206.983 177.115 206.625 177.382L206.491 177.484C206.34 177.598 206.194 177.712 206.053 177.823C205.99 177.873 205.929 177.922 205.869 177.97C205.559 178.219 205.278 178.458 205.024 178.686L204.9 178.8C204.829 178.865 204.759 178.93 204.693 178.994C204.646 179.038 204.603 179.083 204.556 179.127L204.491 179.191C204.449 179.232 204.408 179.274 204.369 179.315C204.264 179.423 204.166 179.529 204.074 179.632L204.008 179.708C203.861 179.878 203.733 180.041 203.62 180.2L203.57 180.272C203.483 180.399 203.402 180.531 203.329 180.667C203.31 180.701 203.292 180.736 203.275 180.77C203.258 180.804 203.242 180.838 203.227 180.872C203.211 180.906 203.204 180.92 203.193 180.945L203.172 180.996L203.155 181.04C203.147 181.061 203.139 181.081 203.132 181.101C203.125 181.122 203.111 181.159 203.103 181.191C203.07 181.289 203.044 181.389 203.025 181.49C203.019 181.512 203.015 181.535 203.012 181.558C203.009 181.58 203.005 181.602 203.002 181.625C202.999 181.647 202.996 181.666 202.994 181.686L202.989 181.745C202.989 181.769 202.989 181.792 202.989 181.815C202.989 181.839 202.989 181.839 202.989 181.849C202.989 181.876 202.989 181.903 202.989 181.93C202.989 181.956 202.989 181.998 202.989 182.032C202.989 182.041 202.989 182.05 202.989 182.059C202.989 182.085 202.989 182.112 202.995 182.139C202.996 182.155 202.998 182.171 203 182.187C203 182.213 203.007 182.239 203.01 182.266C203.014 182.293 203.022 182.339 203.029 182.376C203.029 182.376 203.029 182.376 203.029 182.381C203.036 182.416 203.043 182.451 203.052 182.486C203.061 182.521 203.07 182.56 203.081 182.597C203.101 182.667 203.124 182.737 203.15 182.808C203.165 182.849 203.18 182.89 203.197 182.931C203.197 182.939 203.204 182.948 203.207 182.956C203.219 182.983 203.23 183.011 203.243 183.038C203.255 183.065 203.276 183.112 203.294 183.149C203.329 183.223 203.366 183.297 203.407 183.372C203.428 183.41 203.449 183.447 203.47 183.485L203.536 183.599C203.559 183.636 203.581 183.675 203.605 183.713C203.617 183.732 203.631 183.75 203.645 183.766L203.668 183.79L203.692 183.812L203.719 183.833C203.737 183.846 203.756 183.857 203.776 183.868C203.796 183.877 203.818 183.887 203.84 183.895C203.864 183.904 203.887 183.91 203.912 183.916C204.489 184.046 205.675 183.568 207.25 182.736C207.34 182.688 207.437 182.638 207.533 182.586L208.012 182.325L208.247 182.195C208.413 182.105 208.584 182.005 208.757 181.906C208.862 181.846 208.968 181.787 209.074 181.727C211.157 180.528 213.646 178.987 216.218 177.483C216.458 177.342 216.7 177.202 216.942 177.062L217.428 176.752C217.671 176.612 217.913 176.474 218.156 176.338C218.48 176.154 218.804 175.973 219.129 175.795C219.857 175.395 220.582 175.009 221.297 174.644L221.772 174.403C222.088 174.247 222.401 174.095 222.71 173.947C223.021 173.801 223.328 173.66 223.631 173.525C223.933 173.39 224.232 173.262 224.525 173.139L224.86 173.003L224.901 172.987C226.675 172.284 228.284 171.849 229.586 171.849C229.868 171.847 230.149 171.87 230.427 171.918H230.435C230.525 171.934 230.606 171.952 230.688 171.973H230.703C230.771 171.99 230.838 172.009 230.903 172.031C230.955 172.048 231.006 172.066 231.055 172.085C231.104 172.104 231.131 172.115 231.169 172.132C231.22 172.154 231.27 172.177 231.319 172.203C231.369 172.228 231.435 172.265 231.491 172.298C231.699 172.425 231.887 172.581 232.05 172.762C232.122 172.841 232.188 172.926 232.249 173.015C232.269 173.044 232.288 173.074 232.306 173.105C232.344 173.163 232.38 173.223 232.413 173.284C232.456 173.362 232.496 173.443 232.532 173.528C232.569 173.613 232.603 173.701 232.635 173.796C232.667 173.892 232.695 173.984 232.724 174.083C232.936 174.841 232.915 175.643 232.664 176.389Z" fill="#FF9D00"/>
<path fill-rule="evenodd" clip-rule="evenodd" d="M220.867 122.075V121.585C220.867 79.731 186.949 45.8019 145.092 45.8019C103.237 45.8019 69.3056 79.733 69.3056 121.585C69.3056 121.64 69.3051 121.694 69.3046 121.749C69.3036 121.858 69.3026 121.966 69.3056 122.075C69.3085 122.18 69.3088 122.284 69.3091 122.388C69.3092 122.446 69.3094 122.505 69.31 122.564C69.3113 122.683 69.3136 122.806 69.3158 122.924C69.3166 122.968 69.3174 123.012 69.3181 123.054C69.3191 123.113 69.3208 123.173 69.3225 123.232C69.3252 123.328 69.3279 123.423 69.3279 123.519L69.3387 123.908C69.3431 124.06 69.3485 124.213 69.3539 124.365L69.3592 124.515C69.3652 124.673 69.372 124.83 69.3789 124.988L69.3798 125.01C69.3876 125.195 69.3972 125.379 69.4068 125.563L69.4075 125.577C69.4174 125.766 69.4272 125.955 69.4389 126.143C69.4487 126.318 69.4603 126.492 69.4719 126.666C69.4726 126.676 69.4736 126.686 69.4746 126.697C69.4764 126.716 69.4782 126.735 69.4782 126.755C69.4862 126.885 69.4952 127.015 69.505 127.145L69.5079 127.184C69.5186 127.328 69.5293 127.473 69.5408 127.616L69.5429 127.644C69.5494 127.728 69.5559 127.813 69.5632 127.894C69.5924 128.248 69.6239 128.602 69.6579 128.955C69.6943 129.323 69.7325 129.69 69.7724 130.055L69.7778 130.1C69.7975 130.276 69.8162 130.443 69.8386 130.628C69.861 130.813 69.8833 130.998 69.9065 131.184C69.9224 131.309 69.939 131.435 69.9556 131.56C69.9634 131.619 69.9713 131.679 69.979 131.738C70.0032 131.922 70.0291 132.108 70.055 132.292C70.0747 132.432 70.0953 132.573 70.1159 132.713C70.1275 132.795 70.14 132.877 70.1525 132.959L70.1566 132.986C70.1758 133.114 70.1951 133.242 70.2151 133.37C70.2205 133.383 70.2205 133.394 70.2205 133.407C70.2801 133.772 70.3397 134.133 70.3993 134.49C70.5555 135.403 70.7282 136.309 70.9172 137.209C71.0322 137.749 71.1515 138.286 71.2749 138.819L71.2802 138.842C71.2909 138.887 71.3015 138.932 71.3121 138.977C71.3424 139.105 71.3726 139.233 71.4037 139.362L71.4591 139.295C73.6592 136.665 76.8152 135.215 80.346 135.215C83.1757 135.215 86.0796 136.15 88.9888 137.995C90.9197 139.221 93.0535 141.393 95.2492 144.124C97.2811 141.301 100.129 139.426 103.387 138.914C104.009 138.816 104.637 138.766 105.265 138.765C112.702 138.765 117.181 145.219 118.873 151.023C119.708 152.985 123.738 161.916 129.814 167.958C139.049 177.185 141.36 186.707 136.79 196.902H136.805C137.117 196.936 137.43 196.968 137.744 196.997C137.931 197.015 138.118 197.033 138.305 197.049L138.371 197.055C138.508 197.068 138.646 197.08 138.784 197.09L139.164 197.121C139.526 197.149 139.889 197.174 140.254 197.198L140.542 197.215C140.619 197.22 140.695 197.224 140.771 197.228C140.819 197.231 140.866 197.233 140.914 197.236L141.36 197.26L141.482 197.265L141.952 197.285L142.473 197.305L142.893 197.317C142.916 197.318 142.939 197.319 142.963 197.32C143.051 197.323 143.141 197.327 143.23 197.327C143.261 197.328 143.293 197.328 143.325 197.329C143.424 197.332 143.526 197.335 143.626 197.335C144.114 197.345 144.604 197.35 145.094 197.35H145.72L146.168 197.345C146.278 197.339 146.387 197.339 146.497 197.339H146.671C146.721 197.339 146.772 197.337 146.822 197.336C146.881 197.334 146.941 197.332 147 197.332H147.179L147.53 197.322L148.058 197.304L148.64 197.279C148.807 197.272 148.973 197.264 149.14 197.255L149.319 197.245C149.407 197.241 149.496 197.235 149.584 197.23C149.636 197.227 149.688 197.224 149.741 197.221L149.858 197.214L150.395 197.178C150.574 197.167 150.753 197.153 150.932 197.139L151.418 197.101L151.761 197.072L152.136 197.038C152.521 197.002 152.905 196.964 153.287 196.924C153.531 196.897 153.773 196.87 154.016 196.841L154.443 196.79C149.944 186.637 152.273 177.158 161.471 167.967C167.533 161.91 171.563 152.977 172.403 151.016C174.096 145.211 178.571 138.758 186.01 138.758C186.639 138.759 187.267 138.808 187.888 138.907C191.143 139.419 193.992 141.295 196.027 144.117C198.224 141.386 200.357 139.214 202.287 137.988C205.196 136.143 208.102 135.208 210.929 135.208C214.045 135.208 216.87 136.338 219.003 138.41C219.041 138.241 219.079 138.071 219.116 137.902C219.153 137.733 219.189 137.565 219.225 137.396C219.265 137.211 219.303 137.027 219.341 136.842C219.407 136.515 219.472 136.187 219.536 135.858C219.602 135.515 219.665 135.172 219.724 134.828C219.735 134.766 219.746 134.704 219.756 134.642C219.774 134.532 219.793 134.422 219.814 134.311C219.847 134.138 219.876 133.967 219.903 133.793L219.914 133.727C219.938 133.575 219.962 133.425 219.985 133.274L220.055 132.815L220.056 132.81C220.084 132.618 220.113 132.425 220.139 132.232C220.16 132.086 220.18 131.94 220.199 131.793L220.211 131.709L220.273 131.231L220.324 130.824C220.355 130.556 220.385 130.288 220.414 130.019C220.427 129.912 220.438 129.804 220.449 129.696L220.459 129.609C220.478 129.435 220.495 129.261 220.511 129.087C220.512 129.082 220.512 129.078 220.511 129.073C220.525 128.934 220.538 128.796 220.551 128.657C220.622 127.868 220.681 127.077 220.73 126.282C220.738 126.152 220.746 126.021 220.753 125.889L220.753 125.883C220.762 125.719 220.771 125.556 220.78 125.393L220.785 125.283C220.792 125.128 220.799 124.973 220.805 124.818C220.813 124.643 220.82 124.466 220.826 124.287V124.274C220.828 124.231 220.83 124.188 220.831 124.145C220.836 124.035 220.84 123.925 220.84 123.816L220.842 123.771C220.846 123.669 220.85 123.563 220.85 123.458C220.851 123.428 220.852 123.398 220.853 123.368C220.856 123.263 220.859 123.159 220.859 123.054C220.86 123.024 220.861 122.995 220.861 122.965C220.864 122.831 220.867 122.698 220.867 122.564V122.075ZM126.296 197.782C132.297 188.98 131.872 182.374 123.637 174.144C115.402 165.914 110.609 153.878 110.609 153.878C110.609 153.878 108.82 146.886 104.74 147.529C100.66 148.171 97.6666 158.618 106.209 165.013C114.751 171.408 104.51 175.744 101.222 169.743C97.9331 163.741 88.9566 148.314 84.3025 145.363C79.6484 142.412 76.3752 144.066 77.4725 150.148C78.0172 153.167 83.0852 158.319 87.8201 163.133C92.6241 168.018 97.0853 172.553 96.1318 174.158C94.2386 177.346 87.5713 170.413 87.5713 170.413C87.5713 170.413 66.6959 151.416 62.1509 156.367C57.9622 160.93 64.4225 164.809 74.3779 170.787C75.2247 171.296 76.0967 171.82 76.9896 172.36C88.3807 179.256 89.266 181.075 87.65 183.684C87.0526 184.648 83.2393 182.358 78.5501 179.543C70.5545 174.743 60.0123 168.414 58.5235 174.079C57.2351 178.982 64.9909 181.986 72.0252 184.711C77.8854 186.981 83.2447 189.057 82.4566 191.875C81.6397 194.796 77.2107 192.36 72.3692 189.696C66.934 186.705 60.9789 183.428 59.0306 187.126C55.3469 194.116 84.4411 202.345 84.6799 202.405C94.08 204.843 117.952 210.009 126.296 197.782ZM164.96 197.782C158.958 188.98 159.384 182.374 167.619 174.144C175.854 165.914 180.648 153.878 180.648 153.878C180.648 153.878 182.436 146.886 186.516 147.529C190.596 148.171 193.59 158.618 185.047 165.013C176.504 171.408 186.746 175.744 190.035 169.743C193.323 163.741 202.295 148.314 206.949 145.363C211.603 142.412 214.877 144.066 213.78 150.148C213.235 153.167 208.167 158.32 203.431 163.134L203.431 163.134C198.627 168.018 194.167 172.553 195.12 174.158C197.012 177.346 203.685 170.409 203.685 170.409C203.685 170.409 224.56 151.412 229.105 156.363C233.294 160.926 226.833 164.806 216.877 170.785C216.03 171.293 215.159 171.816 214.266 172.357C202.875 179.252 201.99 181.072 203.606 183.68C204.203 184.644 208.016 182.355 212.705 179.54C220.701 174.74 231.244 168.41 232.732 174.075C234.021 178.978 226.265 181.983 219.23 184.708C213.37 186.978 208.011 189.053 208.798 191.872C209.615 194.793 214.042 192.356 218.882 189.692C224.317 186.701 230.273 183.423 232.222 187.122C235.906 194.117 206.808 202.337 206.572 202.398C197.172 204.843 173.3 210.009 164.96 197.782Z" fill="#FFD21E"/>
<path fill-rule="evenodd" clip-rule="evenodd" d="M169.705 100.957C170.886 101.375 171.765 102.648 172.601 103.858C173.731 105.495 174.783 107.017 176.397 106.159C178.301 105.147 179.863 103.592 180.883 101.693C181.904 99.7929 182.339 97.6331 182.132 95.4865C181.925 93.3399 181.087 91.3027 179.722 89.6327C178.358 87.9627 176.529 86.7348 174.466 86.104C172.404 85.4732 170.201 85.4684 168.135 86.0899C166.071 86.7114 164.236 87.9311 162.864 89.5953C161.492 91.2595 160.644 93.2928 160.428 95.4384C160.212 97.5845 160.637 99.7462 161.649 101.65C162.397 103.057 164.057 102.394 165.809 101.693C167.183 101.144 168.613 100.572 169.705 100.957ZM118.329 100.958C117.148 101.376 116.268 102.649 115.432 103.859C114.302 105.495 113.25 107.018 111.636 106.16C109.732 105.147 108.171 103.593 107.151 101.693C106.13 99.7929 105.696 97.6337 105.902 95.487C106.109 93.3404 106.948 91.3033 108.312 89.6332C109.677 87.9632 111.506 86.7358 113.569 86.105C115.631 85.4747 117.834 85.4699 119.899 86.0914C121.964 86.7129 123.799 87.9326 125.171 89.5963C126.543 91.2605 127.39 93.2937 127.606 95.4394C127.823 97.585 127.398 99.7467 126.386 101.651C125.636 103.058 123.976 102.394 122.224 101.693C120.851 101.144 119.421 100.572 118.329 100.958ZM161.757 147.709C169.9 141.293 172.891 130.82 172.891 124.368C172.891 119.268 169.459 120.873 163.966 123.592C163.864 123.643 163.761 123.694 163.657 123.746C158.614 126.243 151.902 129.567 144.534 129.567C137.165 129.567 130.453 126.242 125.412 123.745C119.741 120.936 116.184 119.174 116.184 124.369C116.184 131.024 119.366 141.953 128.101 148.303C129.253 145.963 130.876 143.887 132.868 142.203C134.859 140.519 137.177 139.264 139.675 138.517C140.547 138.257 141.445 139.758 142.365 141.294C143.252 142.777 144.158 144.293 145.081 144.293C146.063 144.293 147.029 142.799 147.972 141.34C148.957 139.816 149.917 138.33 150.846 138.627C151.118 138.714 151.386 138.806 151.651 138.905C155.979 140.512 159.572 143.642 161.757 147.709Z" fill="#32343D"/>
<path d="M161.754 147.708C157.513 151.05 151.876 153.291 144.536 153.291C137.639 153.291 132.244 151.313 128.101 148.302C129.253 145.963 130.876 143.886 132.867 142.202C134.859 140.519 137.176 139.264 139.675 138.516C141.388 138.005 143.202 144.292 145.08 144.292C147.091 144.292 149.028 138.045 150.846 138.626C151.116 138.713 151.384 138.805 151.651 138.904C155.977 140.512 159.57 143.642 161.754 147.708Z" fill="#FF323D"/>
<path fill-rule="evenodd" clip-rule="evenodd" d="M98.8582 110.031C97.6925 110.81 96.322 111.226 94.92 111.226C93.9892 111.226 93.0671 111.042 92.2068 110.686C91.3465 110.33 90.5652 109.808 89.9069 109.149C89.2486 108.491 88.7266 107.709 88.3705 106.849C88.0144 105.989 87.8313 105.067 87.8316 104.136C87.832 102.734 88.248 101.364 89.0271 100.198C89.8062 99.0328 90.9134 98.1249 92.2087 97.5885C93.5038 97.0521 94.9292 96.912 96.304 97.1858C97.6788 97.4596 98.9418 98.1346 99.9329 99.1262C100.924 100.117 101.599 101.38 101.872 102.755C102.146 104.13 102.005 105.555 101.469 106.85C100.932 108.145 100.024 109.252 98.8582 110.031ZM200.27 110.031C199.104 110.81 197.734 111.226 196.332 111.226C195.401 111.226 194.479 111.042 193.619 110.686C192.759 110.33 191.977 109.808 191.319 109.149C190.661 108.491 190.139 107.709 189.783 106.849C189.427 105.989 189.243 105.067 189.244 104.136C189.244 102.734 189.66 101.364 190.439 100.198C191.218 99.0328 192.326 98.1249 193.621 97.5885C194.916 97.0521 196.341 96.912 197.716 97.1858C199.091 97.4596 200.354 98.1346 201.345 99.1262C202.336 100.117 203.011 101.38 203.285 102.755C203.558 104.13 203.417 105.555 202.881 106.85C202.344 108.145 201.436 109.252 200.27 110.031Z" fill="#FFAD03"/>
<defs>
<filter id="filter0_d_3_49" x="30.1271" y="20.5361" width="231.956" height="217.2" filterUnits="userSpaceOnUse" color-interpolation-filters="sRGB">
<feFlood flood-opacity="0" result="BackgroundImageFix"/>
<feColorMatrix in="SourceAlpha" type="matrix" values="0 0 0 0 0 0 0 0 0 0 0 0 0 0 0 0 0 0 127 0" result="hardAlpha"/>
<feOffset dy="3"/>
<feGaussianBlur stdDeviation="6.5"/>
<feColorMatrix type="matrix" values="0 0 0 0 0 0 0 0 0 0 0 0 0 0 0 0 0 0 0.1 0"/>
<feBlend mode="normal" in2="BackgroundImageFix" result="effect1_dropShadow_3_49"/>
<feBlend mode="normal" in="SourceGraphic" in2="effect1_dropShadow_3_49" result="shape"/>
</filter>
</defs>
</svg>
