<svg width="24" height="24" viewBox="0 0 24 24" fill="none" xmlns="http://www.w3.org/2000/svg">
<g clip-path="url(#clip0_1421_5)">
<path d="M12.6821 17.5458C12.5956 17.6404 12.4904 17.716 12.3731 17.7677C12.2558 17.8193 12.129 17.846 12.0009 17.846C11.8727 17.846 11.7459 17.8193 11.6286 17.7677C11.5114 17.716 11.4061 17.6404 11.3196 17.5458L6.39656 12.1612C6.23525 11.9799 6.15181 11.7424 6.16431 11.5001C6.17681 11.2577 6.28424 11.0301 6.46334 10.8663C6.64244 10.7026 6.87882 10.616 7.1213 10.6252C7.36379 10.6345 7.59289 10.7388 7.75902 10.9157L11.0772 14.5465V0.923077C11.0772 0.678262 11.1744 0.443473 11.3475 0.270363C11.5206 0.0972524 11.7554 0 12.0002 0C12.2451 0 12.4799 0.0972524 12.653 0.270363C12.8261 0.443473 12.9233 0.678262 12.9233 0.923077V14.5452L16.2427 10.9145C16.408 10.7338 16.6384 10.6262 16.883 10.6153C17.1277 10.6045 17.3667 10.6913 17.5473 10.8566C17.728 11.0219 17.8356 11.2523 17.8464 11.4969C17.8573 11.7416 17.7705 11.9806 17.6052 12.1612L12.6821 17.5458Z" fill="#778088"/>
<path d="M1.84615 15.6916C1.84615 15.4468 1.7489 15.212 1.57579 15.0389C1.40268 14.8658 1.16789 14.7686 0.923077 14.7686C0.678262 14.7686 0.443473 14.8658 0.270363 15.0389C0.0972524 15.212 0 15.4468 0 15.6916V15.7593C0 17.4418 1.28379e-07 18.7993 0.144 19.8664C0.291692 20.9741 0.611692 21.907 1.35138 22.6479C2.09231 23.3889 3.02523 23.7064 4.13292 23.8566C5.2 23.9993 6.55754 23.9993 8.24 23.9993H15.76C17.4425 23.9993 18.8 23.9993 19.8671 23.8566C20.9748 23.7064 21.9077 23.3889 22.6486 22.6479C23.3895 21.907 23.7071 20.9741 23.8572 19.8664C24 18.7993 24 17.4418 24 15.7593V15.6916C24 15.4468 23.9027 15.212 23.7296 15.0389C23.5565 14.8658 23.3217 14.7686 23.0769 14.7686C22.8321 14.7686 22.5973 14.8658 22.4242 15.0389C22.2511 15.212 22.1538 15.4468 22.1538 15.6916C22.1538 17.4578 22.1514 18.6898 22.0271 19.6202C21.9052 20.5236 21.6825 21.0012 21.3428 21.3421C21.0018 21.683 20.5243 21.9046 19.6197 22.0264C18.6905 22.1507 17.4585 22.1532 15.6923 22.1532H8.30769C6.54154 22.1532 5.30831 22.1507 4.37908 22.0264C3.47569 21.9046 2.99815 21.6818 2.65723 21.3421C2.31631 21.0012 2.09477 20.5236 1.97292 19.619C1.84862 18.6898 1.84615 17.4578 1.84615 15.6916Z" fill="#778088"/>
</g>
<defs>
<clipPath id="clip0_1421_5">
<rect width="24" height="24" fill="white"/>
</clipPath>
</defs>
</svg>
